{"title":"The Ghost Writer 2010 BluRay.720p.x264.AC3.[PHD]","uid":7122712,"size":5941686519,"categoryP":"video","categoryS":"hd___movies","magnet":"?xt=urn:btih:4ea71c3c0a82233e45560d2ab1df0f2d73569b85&amp;dn=The+Ghost+Writer+2010+BluRay.720p.x264.AC3.%5BPHD%5D&amp;tr=udp%3A%2F%2Ftracker.openbittorrent.com%3A80&amp;tr=udp%3A%2F%2Fopen.demonii.com%3A1337&amp;tr=udp%3A%2F%2Ftracker.coppersurfer.tk%3A6969&amp;tr=udp%3A%2F%2Fexodus.desync.com%3A6969","seeders":0,"leechers":1,"uploader":"WORD7BBC","files":-1,"time":1332376932,"description":"The Ghost Writer 2010 BluRay.720p.x264.AC3.[PHD]\n\n &lt;a href=&quot; http://www.imdb.com/title/tt1139328/&quot; rel=&quot;nofollow&quot; target=&quot;_NEW&quot;&gt; http://www.imdb.com/title/tt1139328/&lt;/a&gt;\n\nINFO &lt;&gt; INFO &lt;&gt; INFO &lt;&gt; INFO\n\nFormat : Matroska\n Format version : Version 2\n File size : 5.53 GiB\n Duration : 2h 3mn\n Overall bit rate : 6 429 Kbps\n Encoded date : UTC 2010-08-22 03:06:21\n Writing application : mkvmerge v3.3.0 ('Language' built on Mar 24 2010 14:59:24\n Writing library : libebml v0.8.0 + libmatroska v0.9.0\n\n Video\n ID : 1\n Format : AVC\n Format/Info : Advanced Video Codec\n Format profile : &lt;a class=&quot;__cf_email__&quot; href=&quot;/cdn-cgi/l/email-protection&quot; data-cfemail=&quot;8ec6e7e9e6cec2baa0bf&quot;&gt;[email&amp;#160;protected]&lt;/a&gt;&lt;script cf-hash='f9e31' type=&quot;text/javascript&quot;&gt;\n/* &lt;![CDATA[ */!function(){try{var t=&quot;currentScript&quot;in document?document.currentScript:function(){for(var t=document.getElementsByTagName(&quot;script&quot;),e=t.length;e--;)if(t[e].getAttribute(&quot;cf-hash&quot;))return t[e]}();if(t&amp;&amp;t.previousSibling){var e,r,n,i,c=t.previousSibling,a=c.getAttribute(&quot;data-cfemail&quot;);if(a){for(e=&quot;&quot;,r=parseInt(a.substr(0,2),16),n=2;a.length-n;n+=2)i=parseInt(a.substr(n,2),16)^r,e+=String.fromCharCode(i);e=document.createTextNode(e),c.parentNode.replaceChild(e,c)}}}catch(u){}}();/* ]]&gt; */&lt;/script&gt;\n Format settings, CABAC : Yes\n Format settings, ReFrames : 5 frames\n Codec ID : V_MPEG4/ISO/AVC\n Duration : 2h 3mn\n Bit rate : 5 797 Kbps\n Width : 1 280 pixels\n Height : 544 pixels\n Display aspect ratio : 2.35:1\n Frame rate : 25.000 fps\n Original frame rate : 23.976 fps\n Color space : YUV\n Chroma subsampling : 4:2:0\n Bit depth : 8 bits\n Scan type : Progressive\n Bits/(Pixel*Frame) : 0.333\n Stream size : 5.09 GiB (92%)\n Writing library : x264 core 104 r1677 19df41a\n Language : Polish\n Default : Yes\n Forced : No\n\n Audio\n ID : 2\n Format : AC-3\n Format/Info : Audio Coding 3\n Mode extension : CM (complete main)\n Codec ID : A_AC3\n Duration : 2h 3mn\n Bit rate mode : Constant\n Bit rate : 384 Kbps\n Channel(s) : 6 channels\n Channel positions : Front: L C R, Side: L R, LFE\n Sampling rate : 48.0 KHz\n Bit depth : 16 bits\n Compression mode : Lossy\n Delay relative to video : 22s 500ms\n Stream size : 338 MiB (6%)\n Language : Polish\n Default : Yes\n Forced : No","torrent":{"xt":"urn:btih:4ea71c3c0a82233e45560d2ab1df0f2d73569b85","amp;dn":"The+Ghost+Writer+2010+BluRay.720p.x264.AC3.%5BPHD%5D","amp;tr":["udp%3A%2F%2Ftracker.openbittorrent.com%3A80","udp%3A%2F%2Fopen.demonii.com%3A1337","udp%3A%2F%2Ftracker.coppersurfer.tk%3A6969","udp%3A%2F%2Fexodus.desync.com%3A6969"],"infoHash":"4ea71c3c0a82233e45560d2ab1df0f2d73569b85","infoHashBuffer":{"type":"Buffer","data":[78,167,28,60,10,130,35,62,69,86,13,42,177,223,15,45,115,86,155,133]},"announce":[],"urlList":[]}}